PathFileType	4	(X/Y/Z)	Patient4_TMGait_0pt3_02_right_17.trc.trc
DataRate	CameraRate	NumFrames	NumMarkers	Units	OrigDataRate	OrigDataStartFrame	OrigNumFrames
49.645390070922	49.645390070922	4	33	mm	49.645390070922	106	       141
Frame#	Time	Sacral			L.Shoulder			Chest			R.Shoulder			Neck			R.ASIS			L.ASIS			R.Thigh.Superior			R.Thigh.Lateral			R.Thigh.Inferior			R.Patella			L.Thigh.Superior			L.Thigh.Lateral			L.Thigh.Inferior			L.Patella			L.Shank.Superior			L.Shank.Lateral			L.Shank.Inferior			R.Shank.Superior			R.Shank.Lateral			R.Shank.Inferior			R.Heel			R.Midfoot.Superior			R.Midfoot.Lateral			R.Toe			L.Heel			L.Midfoot.Lateral			L.Midfoot.Superior			L.Toe			L.Elbow			L.Wrist			R.Elbow			R.Wrist			
		X1	Y1	Z1	X2	Y2	Z2	X3	Y3	Z3	X4	Y4	Z4	X5	Y5	Z5	X6	Y6	Z6	X7	Y7	Z7	X8	Y8	Z8	X9	Y9	Z9	X10	Y10	Z10	X11	Y11	Z11	X12	Y12	Z12	X13	Y13	Z13	X14	Y14	Z14	X15	Y15	Z15	X16	Y16	Z16	X17	Y17	Z17	X18	Y18	Z18	X19	Y19	Z19	X20	Y20	Z20	X21	Y21	Z21	X22	Y22	Z22	X23	Y23	Z23	X24	Y24	Z24	X25	Y25	Z25	X26	Y26	Z26	X27	Y27	Z27	X28	Y28	Z28	X29	Y29	Z29	X30	Y30	Z30	X31	Y31	Z31	X32	Y32	Z32	X33	Y33	Z33	

106	34.065000000000	691.362382083251	995.568295275370	419.808242156930	910.971758387821	1423.940733048323	259.081268573492	996.272458674074	1343.761735809594	424.619290776652	903.570209309754	1414.590462884095	594.882840210862	883.496290888783	1479.915522307725	418.675483313912	916.642836179269	925.683139562633	544.938571779649	913.206279989435	947.260063181640	272.265703862818	989.494110264597	747.736249504965	513.682844219708	940.645580363390	630.111984520124	586.805147830320	1026.140501766243	583.293181742599	505.947440285816	1033.922698307859	468.912108293642	532.034420662399	972.235977722112	742.011227139880	313.567824392028	898.105808323517	614.951191599685	261.966112418060	986.064690072198	549.158658698813	336.348474496530	991.572179258345	474.844988813040	349.107926168013	951.818093129364	400.188618034158	344.989360438226	850.682446696245	295.861887833056	294.357261418944	877.837412690852	183.557423950967	372.666002713078	948.470454770812	403.498597478758	543.708890367826	820.927529141276	382.631862208337	602.735321150098	795.781459593691	271.927884535742	561.242903295047	590.524188674018	240.090241536975	527.635616380327	744.195044736411	152.811228256446	582.045504036838	633.438534710670	173.246812706199	606.526592964178	786.645900688147	33.381495118732	614.833462074657	729.388526273204	39.314791144927	414.557843454552	804.327668533413	36.084542519086	334.958747472401	888.940803343959	95.380145985437	363.478900233330	1016.579499638033	39.765656114575	334.864968152660	970.202647676336	1099.843417989877	93.316503885303	1164.517812241839	925.345320650005	114.063173306246	812.717551876566	1070.561732919279	693.794213906332	834.873725445083	812.402692353685	714.788028962392	
107	34.085142857143	689.939706151268	997.552648864993	416.876373561477	913.007275796379	1426.168883850583	259.691826292250	995.153545231380	1345.690349815535	426.521586871908	899.494359473712	1416.352098419060	595.237035176499	882.621749471023	1481.723545649565	418.984933226078	913.843216681604	927.734839907823	544.407954220198	913.408715550009	949.198423930508	271.700400156599	990.139505785171	753.306614216739	511.798668745534	944.598996989434	634.467853482586	585.126517759943	1030.951026599418	589.651411828721	503.984342845562	1041.667807917563	475.318857318637	529.992387990071	969.027770331746	741.631073622207	311.954531970377	892.537021214572	615.838595848905	260.434339231300	979.159763599608	548.744587314071	334.753126588428	983.601457129251	474.993251566359	347.758722646053	944.217121913074	400.733299778020	343.636316501755	843.504046131166	295.897507956741	293.133629882915	871.130778068754	183.902177600539	371.983642864936	957.572414019162	408.084854656471	541.587547399335	830.318144060252	384.332883656109	599.904710383690	808.103705298308	273.015147993483	558.447612290485	603.969138879889	234.963295132588	523.955411022558	760.039939375950	153.804917441455	579.157736619494	648.862391845790	170.218191258458	603.207486002212	806.254629417658	34.751546927358	612.465011087829	723.185193003932	39.304109590574	414.437046116640	798.174727898039	36.004753543338	334.804146538763	882.779201246249	95.359480893640	363.189700414468	1010.444512174588	39.799487363480	334.820762545303	979.602217803284	1105.005411980058	92.203630870198	1182.142997673205	940.346504211609	114.117469843722	793.187033633652	1076.708331810014	690.502421996696	800.860940530865	817.147377316803	708.735384292094	
108	34.105285714286	688.593534133117	1000.016595829579	414.128940911583	915.130930907957	1428.713536171543	260.528138808554	994.054452829637	1347.963945804023	428.616226634032	895.505538837427	1418.621323207199	595.667670990373	881.751904171315	1483.883834635423	419.430701906264	910.969931333192	930.181781439840	544.232246386354	913.694370473480	951.422864205514	271.519271336501	989.879355196767	758.749420288181	510.545615678662	947.106489470342	638.958139392630	584.029380325233	1034.076096584868	595.843086103980	502.704472197383	1047.660896318419	481.996782322533	528.687278827637	965.432678929436	741.393737703008	310.801450772553	886.447451624479	617.034660694144	259.109682677144	971.534485912721	548.493054223119	333.356774915015	974.784508954963	475.358037910740	346.526957253167	935.945157118848	401.578770548839	342.331014961602	835.805479320533	296.086547592916	291.975753437561	864.177989317967	184.408286580994	371.309621597798	965.653827627509	412.608535493596	540.230141854075	839.357259636476	384.532297500500	598.094375850060	821.228988728935	272.629196728539	556.490807297488	618.887974270715	225.685779019633	521.699324653749	778.221153458348	153.182254235760	577.030615155380	666.834398198939	163.858414215071	601.053993145963	829.938288948017	36.183294031947	610.448496615359	716.969789587918	39.297727154787	414.325369691509	792.010928874125	35.933334080464	334.661936887813	876.606969672281	95.359229303503	362.895419109336	1004.298681477398	39.848512925327	334.781973861833	988.593098844719	1110.601987999897	91.472665877018	1198.866369335770	956.308036037409	114.918688491822	774.804917359924	1083.893450718250	687.240871166955	769.680880058969	823.753384666321	702.885961518771	
109	34.125428571429	687.312472447080	1002.778490609265	411.560214681591	917.327719200347	1431.393952459333	261.560704341496	992.981790384427	1350.405590506583	430.866250221541	891.632205882131	1421.222350207571	596.157349335482	880.907795440464	1486.229963758890	419.979940502672	908.029913750413	932.854513040908	544.407009455800	914.041489799408	953.764001132215	271.708326057811	988.756649421401	763.804669026531	509.942156509652	948.177462381192	643.322141060559	583.544723696899	1035.520910947997	601.557637595875	502.116632218327	1051.863705722060	488.658436997779	528.138103489615	961.541923339111	741.232397565091	310.116521528191	880.018447939365	618.436604697736	257.993051272977	963.404694179157	548.351218799204	332.178122828034	965.366136591782	475.864334143959	345.431701417196	927.212872268698	402.632301365739	341.098172209186	827.742445658079	296.390477442376	290.908495083413	857.053929666401	185.021260908456	370.661060859035	972.684386868054	416.879322546653	539.685633895600	848.133184900272	383.194004894801	597.416335761732	835.167739220876	270.833310469805	555.522430497753	635.538539885950	212.728830967585	521.005595996766	798.601219913484	151.055368249177	575.874589859902	687.359342908233	154.602243387530	600.247189381848	857.188855966910	37.682862712817	609.083509232355	710.754334533561	39.295303623141	414.224143516767	785.842352626881	35.870363291905	334.535860707821	870.430907636183	95.372534997836	362.609737693323	998.148441694738	39.907105812767	334.749087719467	997.255468221083	1116.471957111512	91.062911716591	1214.676666715329	972.984998198065	116.417388580590	757.696982087985	1091.753987161337	684.082608435073	741.568109217379	831.629203965428	697.384720618980	
